<mxfile host="app.diagrams.net" modified="2024-01-03T02:55:02.387Z" agent="Mozilla/5.0 (Windows NT 10.0; Win64; x64) AppleWebKit/537.36 (KHTML, like Gecko) Chrome/120.0.0.0 Safari/537.36 Edg/120.0.0.0" etag="anYLndomWOtSTw7JNHW6" version="22.1.16" type="github">
  <diagram name="第 1 页" id="Vqne7vY1NX0dx1pExZBK">
    <mxGraphModel dx="1143" dy="785" grid="0" gridSize="10" guides="1" tooltips="1" connect="1" arrows="1" fold="1" page="0" pageScale="1" pageWidth="827" pageHeight="1169" math="0" shadow="0">
      <root>
        <mxCell id="0" />
        <mxCell id="1" parent="0" />
        <mxCell id="bqftlouv66ecdQ9Rx4jy-1" value="UBOOT" style="rounded=0;whiteSpace=wrap;html=1;fillColor=#f5f5f5;fontColor=#333333;strokeColor=#666666;" parent="1" vertex="1">
          <mxGeometry x="122" y="238" width="91" height="60" as="geometry" />
        </mxCell>
        <mxCell id="bqftlouv66ecdQ9Rx4jy-2" value="ENV" style="rounded=0;whiteSpace=wrap;html=1;fillColor=#d5e8d4;strokeColor=#82b366;" parent="1" vertex="1">
          <mxGeometry x="213" y="238" width="68" height="60" as="geometry" />
        </mxCell>
        <mxCell id="bqftlouv66ecdQ9Rx4jy-3" value="OS" style="rounded=0;whiteSpace=wrap;html=1;fillColor=#f8cecc;strokeColor=#b85450;" parent="1" vertex="1">
          <mxGeometry x="281" y="238" width="120" height="60" as="geometry" />
        </mxCell>
        <mxCell id="bqftlouv66ecdQ9Rx4jy-5" value="OS_MD5&lt;br&gt;64KB" style="rounded=0;whiteSpace=wrap;html=1;fillColor=#d5e8d4;strokeColor=#82b366;" parent="1" vertex="1">
          <mxGeometry x="401" y="238" width="61" height="60" as="geometry" />
        </mxCell>
        <mxCell id="bqftlouv66ecdQ9Rx4jy-6" value="FPGA" style="rounded=0;whiteSpace=wrap;html=1;fillColor=#f8cecc;strokeColor=#b85450;" parent="1" vertex="1">
          <mxGeometry x="462" y="238" width="200" height="60" as="geometry" />
        </mxCell>
        <mxCell id="bqftlouv66ecdQ9Rx4jy-7" value="FPGA_MD5&lt;br&gt;64KB" style="rounded=0;whiteSpace=wrap;html=1;fillColor=#d5e8d4;strokeColor=#82b366;" parent="1" vertex="1">
          <mxGeometry x="662" y="238" width="67" height="60" as="geometry" />
        </mxCell>
        <mxCell id="bqftlouv66ecdQ9Rx4jy-8" value="&lt;font style=&quot;font-size: 15px;&quot;&gt;yaffs文件系统&lt;/font&gt;" style="rounded=0;whiteSpace=wrap;html=1;fillColor=#e1d5e7;strokeColor=#9673a6;" parent="1" vertex="1">
          <mxGeometry x="783" y="238" width="162" height="60" as="geometry" />
        </mxCell>
        <mxCell id="bqftlouv66ecdQ9Rx4jy-9" value="&lt;font style=&quot;font-size: 18px;&quot;&gt;offset&lt;/font&gt;" style="text;html=1;strokeColor=none;fillColor=none;align=center;verticalAlign=middle;whiteSpace=wrap;rounded=0;strokeWidth=7;perimeterSpacing=5;" parent="1" vertex="1">
          <mxGeometry x="41" y="195" width="60" height="30" as="geometry" />
        </mxCell>
        <mxCell id="bqftlouv66ecdQ9Rx4jy-10" value="0" style="text;html=1;strokeColor=none;fillColor=none;align=center;verticalAlign=middle;whiteSpace=wrap;rounded=0;" parent="1" vertex="1">
          <mxGeometry x="96" y="211" width="60" height="30" as="geometry" />
        </mxCell>
        <mxCell id="bqftlouv66ecdQ9Rx4jy-11" value="896KB" style="text;html=1;strokeColor=none;fillColor=none;align=center;verticalAlign=middle;whiteSpace=wrap;rounded=0;" parent="1" vertex="1">
          <mxGeometry x="183" y="211" width="60" height="30" as="geometry" />
        </mxCell>
        <mxCell id="bqftlouv66ecdQ9Rx4jy-12" value="1MB" style="text;html=1;strokeColor=none;fillColor=none;align=center;verticalAlign=middle;whiteSpace=wrap;rounded=0;" parent="1" vertex="1">
          <mxGeometry x="252" y="211" width="60" height="30" as="geometry" />
        </mxCell>
        <mxCell id="bqftlouv66ecdQ9Rx4jy-13" value="6MB" style="text;html=1;strokeColor=none;fillColor=none;align=center;verticalAlign=middle;whiteSpace=wrap;rounded=0;" parent="1" vertex="1">
          <mxGeometry x="434" y="211" width="60" height="30" as="geometry" />
        </mxCell>
        <mxCell id="bqftlouv66ecdQ9Rx4jy-14" value="21MB" style="text;html=1;strokeColor=none;fillColor=none;align=center;verticalAlign=middle;whiteSpace=wrap;rounded=0;" parent="1" vertex="1">
          <mxGeometry x="695" y="211" width="60" height="30" as="geometry" />
        </mxCell>
        <mxCell id="bqftlouv66ecdQ9Rx4jy-15" value="32MB" style="text;html=1;strokeColor=none;fillColor=none;align=center;verticalAlign=middle;whiteSpace=wrap;rounded=0;" parent="1" vertex="1">
          <mxGeometry x="908" y="211" width="60" height="30" as="geometry" />
        </mxCell>
        <mxCell id="bqftlouv66ecdQ9Rx4jy-19" value="" style="shape=curlyBracket;whiteSpace=wrap;html=1;rounded=1;labelPosition=left;verticalLabelPosition=middle;align=right;verticalAlign=middle;direction=north;" parent="1" vertex="1">
          <mxGeometry x="122" y="339" width="605" height="20" as="geometry" />
        </mxCell>
        <mxCell id="bqftlouv66ecdQ9Rx4jy-20" value="" style="shape=curlyBracket;whiteSpace=wrap;html=1;rounded=1;labelPosition=left;verticalLabelPosition=middle;align=right;verticalAlign=middle;direction=north;" parent="1" vertex="1">
          <mxGeometry x="783" y="339" width="161" height="20" as="geometry" />
        </mxCell>
        <mxCell id="bqftlouv66ecdQ9Rx4jy-21" value="&lt;font style=&quot;font-size: 15px;&quot;&gt;暴露在UBOOT&lt;/font&gt;" style="text;html=1;strokeColor=none;fillColor=none;align=center;verticalAlign=middle;whiteSpace=wrap;rounded=0;" parent="1" vertex="1">
          <mxGeometry x="357.25" y="367" width="148.5" height="30" as="geometry" />
        </mxCell>
        <mxCell id="bqftlouv66ecdQ9Rx4jy-22" value="&lt;font style=&quot;font-size: 15px;&quot;&gt;暴露在SylixOS&lt;/font&gt;" style="text;html=1;strokeColor=none;fillColor=none;align=center;verticalAlign=middle;whiteSpace=wrap;rounded=0;" parent="1" vertex="1">
          <mxGeometry x="783" y="367" width="114" height="30" as="geometry" />
        </mxCell>
        <mxCell id="bqftlouv66ecdQ9Rx4jy-23" value="&lt;h1&gt;&lt;font style=&quot;font-size: 17px;&quot;&gt;广天院 QSPI FLASH 内存分布图&lt;/font&gt;&lt;/h1&gt;" style="text;html=1;strokeColor=none;fillColor=none;align=center;verticalAlign=middle;whiteSpace=wrap;rounded=0;" parent="1" vertex="1">
          <mxGeometry x="369" y="137" width="271" height="30" as="geometry" />
        </mxCell>
        <mxCell id="npxwW2T-ttM9PKnTz8UM-1" value="..." style="rounded=0;whiteSpace=wrap;html=1;fillColor=#d5e8d4;strokeColor=#82b366;" vertex="1" parent="1">
          <mxGeometry x="730" y="238" width="53" height="60" as="geometry" />
        </mxCell>
        <mxCell id="npxwW2T-ttM9PKnTz8UM-3" value="22M" style="text;html=1;strokeColor=none;fillColor=none;align=center;verticalAlign=middle;whiteSpace=wrap;rounded=0;" vertex="1" parent="1">
          <mxGeometry x="755" y="211" width="60" height="30" as="geometry" />
        </mxCell>
      </root>
    </mxGraphModel>
  </diagram>
</mxfile>
